#!OML:ASF F:\VICON\USERDATA\INSTALL\rory3\rory3.ASF
:FULLY-SPECIFIED
:DEGREES
438
root 19.344 18.3672 12.5084 197.942 -81.3353 163.161
lowerback 12.0271 -2.74952 1.83597
upperback 1.52913 -3.33463 6.40322
thorax -4.84848 -1.74295 6.28094
lowerneck 0.314171 -10.3916 -9.78439
upperneck 38.0411 -24.7206 12.1026
head 16.7687 -11.824 2.92109
rclavicle -1.27222e-014 -3.33958e-014
rhumerus -29.0817 -12.521 -73.635
rradius 35.5988
rwrist 4.21675
rhand -16.2317 7.844
rfingers 7.12502
rthumb 9.97664 -21.8996
lclavicle -1.27222e-014 -3.33958e-014
lhumerus -30.2078 -2.94663 85.6375
lradius 41.8867
lwrist -3.69554
lhand -17.5729 25.579
lfingers 7.12502
lthumb 8.68251 55.3804
rfemur -9.48884 2.35589 20.9676
rtibia 27.9578
rfoot -9.99745 1.6535
rtoes 8.97592
lfemur -16.4501 4.27488 -20.3965
ltibia 45.8446
lfoot -5.81004 -2.37031
ltoes -21.1367
439
root 19.4534 18.3693 12.4924 197.264 -81.1676 163.615
lowerback 12.0654 -2.6992 1.78278
upperback 1.54688 -3.27394 6.3213
thorax -4.8585 -1.71094 6.21493
lowerneck -0.170629 -9.99386 -9.70864
upperneck 38.497 -23.9271 11.6756
head 16.8787 -11.4898 2.84554
rclavicle -2.5842e-014 -1.59028e-015
rhumerus -29.867 -12.8627 -73.1145
rradius 35.2628
rwrist 4.43474
rhand -16.2436 7.3877
rfingers 7.12502
rthumb 9.96512 -22.3564
lclavicle -2.5842e-014 -1.59028e-015
lhumerus -30.0158 -3.06807 85.903
lradius 42.8011
lwrist -3.23882
lhand -17.6817 25.5984
lfingers 7.12502
lthumb 8.57754 55.4041
rfemur -9.74187 2.26435 21.1283
rtibia 28.0939
rfoot -9.69462 1.62122
rtoes 9.36964
lfemur -15.6556 4.84013 -20.4207
ltibia 46.7624
lfoot -5.32078 -3.14064
ltoes -23.3971
440
root 19.563 18.3846 12.4793 197.569 -81.0177 163.161
lowerback 12.0644 -2.6155 1.68489
upperback 1.54154 -3.17291 6.14037
thorax -4.87806 -1.65528 6.0592
lowerneck -0.463952 -9.64553 -9.52307
upperneck 38.6529 -23.225 11.4857
head 16.8325 -11.1746 2.85255
rclavicle -1.78906e-014 -6.20208e-014
rhumerus -30.6384 -13.157 -72.6556
rradius 34.8649
rwrist 4.48177
rhand -16.0402 6.65543
rfingers 7.12502
rthumb 10.1614 -23.0792
lclavicle -1.78906e-014 -6.20208e-014
lhumerus -29.8268 -3.4701 86.1258
lradius 43.7883
lwrist -2.88283
lhand -17.7643 25.7593
lfingers 7.12502
lthumb 8.49776 55.5683
rfemur -10.0653 1.64406 21.1885
rtibia 28.1983
rfoot -9.52592 1.43641
rtoes 9.17214
lfemur -14.8917 5.32299 -20.5707
ltibia 47.551
lfoot -4.57925 -4.16432
ltoes -23.8689
441
root 19.675 18.3943 12.4691 198.399 -80.8304 162.149
lowerback 12.1375 -2.52177 1.48047
upperback 1.53113 -3.06819 5.94823
thorax -4.93916 -1.59486 5.95727
lowerneck -0.78664 -9.30863 -9.41093
upperneck 38.8117 -22.5677 11.352
head 16.8304 -10.8797 2.88146
rclavicle 1.39149e-014 -5.56597e-014
rhumerus -31.2963 -13.9443 -71.9741
rradius 34.2715
rwrist 4.42369
rhand -15.1286 6.36378
rfingers 7.12502
rthumb 11.0407 -23.3259
lclavicle 1.39149e-014 -5.56597e-014
lhumerus -29.775 -4.08683 86.3631
lradius 44.92
lwrist -2.45987
lhand -18.154 25.4387
lfingers 7.12502
lthumb 8.12171 55.2626
rfemur -10.343 0.883101 21.1096
rtibia 28.2114
rfoot -9.35889 1.35468
rtoes 11.0759
lfemur -14.0834 5.76927 -20.8349
ltibia 48.2528
lfoot -3.70122 -5.24201
ltoes -23.4897
442
root 19.7852 18.3965 12.4618 198.468 -80.5773 161.886
lowerback 12.1409 -2.47159 1.33898
upperback 1.55588 -3.02156 5.84108
thorax -4.91771 -1.56832 5.91372
lowerneck -1.2657 -8.89161 -9.38942
upperneck 39.1775 -21.7158 10.9766
head 16.9151 -10.5275 2.84508
rclavicle 5.60573e-014 -3.18055e-015
rhumerus -31.8661 -14.7694 -71.2221
rradius 33.6757
rwrist 4.02874
rhand -14.4492 6.25316
rfingers 7.12502
rthumb 11.6959 -23.4004
lclavicle 5.60573e-014 -3.18055e-015
lhumerus -29.7245 -4.30618 86.6106
lradius 46.0417
lwrist -2.3728
lhand -18.1827 24.725
lfingers 7.12502
lthumb 8.09402 54.55
rfemur -10.4746 0.841495 21.0849
rtibia 28.0818
rfoot -9.31822 1.29984
rtoes 10.2928
lfemur -13.2413 6.25761 -20.9997
ltibia 48.913
lfoot -2.65608 -6.27596
ltoes -23.1207
443
root 19.8915 18.3853 12.4567 197.851 -80.3068 162.393
lowerback 12 -2.36537 1.41346
upperback 1.58616 -2.8799 5.6986
thorax -4.83134 -1.49956 5.6843
lowerneck -1.62071 -8.53535 -9.2983
upperneck 39.3421 -20.9405 10.7046
head 16.8865 -10.1959 2.83695
rclavicle -8.74653e-015 -3.49861e-014
rhumerus -32.569 -15.5634 -70.6327
rradius 32.9681
rwrist 4.34911
rhand -15.2204 6.40947
rfingers 7.12502
rthumb 10.9522 -23.2849
lclavicle -8.74653e-015 -3.49861e-014
lhumerus -29.5713 -4.62303 86.8691
lradius 47.0643
lwrist -2.33814
lhand -18.2111 24.4876
lfingers 7.12502
lthumb 8.0666 54.3136
rfemur -10.5321 1.03749 21.1553
rtibia 27.8333
rfoot -9.50376 1.50121
rtoes 4.94255
lfemur -12.4479 6.85541 -21.0443
ltibia 49.5181
lfoot -1.48314 -7.42294
ltoes -22.8056
444
root 19.9993 18.3722 12.452 196.424 -80.2215 163.843
lowerback 11.77 -2.26276 1.72873
upperback 1.55606 -2.71221 5.59826
thorax -4.76919 -1.4212 5.35764
lowerneck -1.85888 -8.23972 -9.13076
upperneck 39.4022 -20.2831 10.496
head 16.7983 -9.90366 2.82927
rclavicle -2.74323e-014 2.06736e-014
rhumerus -33.218 -16.2884 -69.9668
rradius 31.9348
rwrist 4.98427
rhand -16.0792 7.05235
rfingers 7.12502
rthumb 10.1237 -22.6841
lclavicle -2.74323e-014 2.06736e-014
lhumerus -29.4149 -5.26037 87.1814
lradius 48.0462
lwrist -1.95479
lhand -18.4391 24.552
lfingers 7.12502
lthumb 7.8465 54.3864
rfemur -10.6658 0.974362 21.4951
rtibia 27.51
rfoot -9.41344 1.65968
rtoes -2.70518
lfemur -11.797 7.32457 -20.8727
ltibia 50.0345
lfoot -0.109952 -8.76126
ltoes -21.9375
445
root 20.1116 18.3668 12.4405 196.132 -80.1407 164.111
lowerback 11.5929 -2.21282 1.726
upperback 1.53272 -2.65199 5.51191
thorax -4.70425 -1.38998 5.24728
lowerneck -2.23519 -7.88132 -9.15143
upperneck 39.6066 -19.5496 10.2885
head 16.8417 -9.59872 2.85516
rclavicle -2.82274e-014 4.29375e-014
rhumerus -33.7226 -17.2679 -69.1243
rradius 31.0339
rwrist 5.7063
rhand -15.5732 6.86056
rfingers 7.12502
rthumb 10.6118 -22.8515
lclavicle -2.82274e-014 4.29375e-014
lhumerus -29.3792 -5.71796 87.4515
lradius 49.0957
lwrist -1.63092
lhand -18.5306 24.4683
lfingers 7.12502
lthumb 7.75823 54.306
rfemur -10.878 0.972838 21.7085
rtibia 27.2659
rfoot -9.22997 1.15036
rtoes 2.02841
lfemur -11.0614 7.7643 -20.8497
ltibia 50.3625
lfoot 1.40597 -10.1033
ltoes -19.9137
446
root 20.2228 18.3622 12.4299 197.013 -79.9627 163.244
lowerback 11.3551 -2.13995 1.53119
upperback 1.48736 -2.58407 5.33294
thorax -4.62515 -1.34924 5.14347
lowerneck -2.56734 -7.5079 -9.14988
upperneck 39.8341 -18.8547 10.1531
head 16.9074 -9.30601 2.90496
rclavicle -1.74931e-014 7.4743e-014
rhumerus -34.4084 -18.25 -68.3508
rradius 30.4096
rwrist 6.43628
rhand -15.3142 6.18224
rfingers 7.12502
rthumb 10.8617 -23.5169
lclavicle -1.74931e-014 7.4743e-014
lhumerus -29.2953 -6.12885 87.6476
lradius 49.923
lwrist -1.59103
lhand -18.5587 24.5232
lfingers 7.12502
lthumb 7.73108 54.3619
rfemur -11.2369 0.743506 21.6558
rtibia 27.1363
rfoot -9.20714 1.05061
rtoes 4.80103
lfemur -10.3134 8.23734 -21.0787
ltibia 50.4857
lfoot 2.93401 -11.3418
ltoes -18.7586
447
root 20.3335 18.355 12.4235 197.828 -79.8001 162.378
lowerback 11.1924 -2.10827 1.29675
upperback 1.43905 -2.5717 5.19206
thorax -4.58294 -1.33566 5.11649
lowerneck -2.75119 -7.0604 -9.13439
upperneck 39.9883 -18.0479 10.0483
head 16.8815 -8.97393 2.9963
rclavicle 2.38542e-015 -1.59028e-015
rhumerus -35.0407 -18.7463 -67.6883
rradius 29.7252
rwrist 6.66917
rhand -15.9079 6.28879
rfingers 7.12502
rthumb 10.289 -23.4395
lclavicle 2.38542e-015 -1.59028e-015
lhumerus -29.2512 -6.40657 87.8752
lradius 50.6984
lwrist -1.52496
lhand -18.7359 24.6598
lfingers 7.12502
lthumb 7.56003 54.5047
rfemur -11.6153 0.197721 21.5719
rtibia 27.0986
rfoot -9.15311 1.36261
rtoes 5.5849
lfemur -9.4554 8.57004 -21.3408
ltibia 50.4272
lfoot 4.37609 -12.5625
ltoes -18.6781
448
root 20.4455 18.3437 12.4178 198.43 -79.6775 161.644
lowerback 11.0996 -2.16318 1.05949
upperback 1.4424 -2.67641 5.11992
thorax -4.51258 -1.38297 5.18362
lowerneck -2.99799 -6.56188 -9.23412
upperneck 40.148 -17.0519 9.79557
head 16.8337 -8.589 3.0709
rclavicle -7.23576e-014 4.77083e-014
rhumerus -35.4495 -19.2399 -66.9582
rradius 28.9635
rwrist 6.9828
rhand -15.966 6.56861
rfingers 7.12502
rthumb 10.2329 -23.1625
lclavicle -7.23576e-014 4.77083e-014
lhumerus -29.2598 -6.44253 88.0752
lradius 51.6065
lwrist -1.3988
lhand -18.9699 24.5163
lfingers 7.12502
lthumb 7.33425 54.3692
rfemur -11.8847 -0.237501 21.5546
rtibia 27.076
rfoot -8.94636 1.39978
rtoes 4.86558
lfemur -8.48687 8.78809 -21.5575
ltibia 50.2212
lfoot 5.8751 -14.0335
ltoes -18.3928
449
root 20.5591 18.3294 12.4132 198.791 -79.5685 161.219
lowerback 10.9534 -2.14568 0.963795
upperback 1.4606 -2.67089 4.98751
thorax -4.41474 -1.3782 5.08626
lowerneck -3.32675 -6.16598 -9.29995
upperneck 40.267 -16.2543 9.65731
head 16.8336 -8.26155 3.14903
rclavicle -1.43125e-014 -2.06736e-014
rhumerus -35.9747 -20.2385 -66.1401
rradius 28.323
rwrist 7.54613
rhand -15.7288 6.70014
rfingers 7.12502
rthumb 10.4617 -23.0195
lclavicle -1.43125e-014 -2.06736e-014
lhumerus -29.1964 -6.75596 88.2425
lradius 52.4648
lwrist -1.41847
lhand -18.7273 24.032
lfingers 7.12502
lthumb 7.56837 53.8765
rfemur -12.2109 -0.486593 21.6114
rtibia 27.0286
rfoot -8.43276 1.14748
rtoes 7.29694
lfemur -7.56174 8.95352 -21.7483
ltibia 49.8929
lfoot 7.38608 -15.697
ltoes -18.6377
450
root 20.6737 18.3167 12.4069 198.615 -79.4611 161.285
lowerback 10.9113 -2.08194 0.951754
upperback 1.43648 -2.58731 4.82365
thorax -4.43038 -1.33366 4.90515
lowerneck -3.58679 -5.79803 -9.10343
upperneck 40.4901 -15.5671 9.42154
head 16.8552 -7.96058 3.12282
rclavicle 1.31198e-014 -3.18055e-015
rhumerus -36.7212 -21.4316 -65.2249
rradius 27.7077
rwrist 8.3403
rhand -14.9415 5.53441
rfingers 7.12502
rthumb 11.2212 -24.1455
lclavicle 1.31198e-014 -3.18055e-015
lhumerus -29.2272 -7.19299 88.3896
lradius 53.2999
lwrist -1.47348
lhand -18.5019 24.1174
lfingers 7.12502
lthumb 7.78594 53.954
rfemur -12.5252 -0.824878 21.7517
rtibia 26.9541
rfoot -7.83493 1.05043
rtoes 11.4483
lfemur -6.58581 9.16399 -21.8521
ltibia 49.4219
lfoot 8.93255 -17.3837
ltoes -19.5178
